<svg version="1.0" xmlns="http://www.w3.org/2000/svg" width="1329.333" height="1329.333" viewBox="0 0 997 997"><path d="M462.7.6c-.1.1-4.8.5-10.3.8-5.6.4-11.2.9-12.5 1.1-1.3.2-4.6.6-7.4.9-2.7.3-5.9.7-7 .9-1.1.3-4.1.7-6.6 1.1-20.2 2.9-46.5 9.3-71.4 17.3-12.6 4.1-33.9 11.9-39 14.3-1.1.5-6.7 3-12.5 5.6-24.1 10.6-45.9 22.6-69 37.9-36.8 24.4-65.8 52-85 80.8-9.9 14.8-19.6 37.2-21.4 49.3-.4 2.2-.9 5.1-1.1 6.4-1.2 5.7-.6 22 1 28.6 5.3 21.3 22.7 40 47.1 50.3 8.5 3.6 22.6 7.8 29.2 8.7 2.6.3 5 .8 5.3 1 .4.2 3.7.6 7.5 1 3.8.3 7.2.9 7.6 1.3.3.3-.9 8-2.7 17.1-1.8 9.2-3.5 19.1-3.9 22-.3 3-.8 6.8-1.1 8.5-1 6.7-1.6 11.3-2.1 16.5-.2 3-.6 7.3-.9 9.5-.9 9.1-1.9 30-1.9 43.7l-.1 14.7-9.7-.4c-13.7-.6-22.9-1.8-37.3-4.6-11.8-2.4-30.7-8.5-40.2-13-33.6-16-55.4-40.9-63.9-72.7-4.1-15.6-3.9-40.2.5-58.7 2-8.3 2-9.5-.5-9.5-3.9 0-19.2 39.8-21.9 57.1-.3 1.9-1 5.9-1.5 8.9-.9 5.5-.7 26.9.3 32.5 6.9 38.2 32.2 69.5 73.7 91.2 10.4 5.5 33.3 14.2 44 16.8 6.7 1.6 20.6 4.6 23.7 5 2.1.3 4.9.8 6.3 1 8 1.4 20.1 2.7 25.8 2.7 2.3 0 3.2.5 3.3 1.7 0 .9.2 2.5.3 3.6.2 1.1.6 5.5 1 9.7.4 4.3.9 8.8 1.1 10 .2 1.3.6 4.5 1 7.3.8 6.8 3.3 23.8 4.5 30.7 4.8 27.8 8 42.2 14.6 66.6 2.5 8.9 4.2 16.7 4 17.1-.3.5-1.8.7-3.3.6-1.6-.2-10.2-.6-19.3-.9-9.1-.4-17.8-.8-19.5-1.1-1.6-.2-5.4-.6-8.4-1-15.9-1.7-30.9-4.4-45.6-8.1-5.5-1.4-10.7-2.7-11.5-2.9-3.2-.7-21.8-7.4-28-10-44.9-19-77-49.3-88.5-83.5-.8-2.5-1.5-5.2-1.5-6.1 0-.9-1-1.9-2.1-2.2-2.2-.6-2.2-.5-1.6 11.6.4 6.7 1.1 13.8 1.7 15.7.6 1.9 1.2 4.6 1.5 6 2 11.1 11.6 31.3 21.2 44.8 6 8.3 20.5 24.1 27.7 30 33.5 27.6 82.2 48.2 131.9 55.6 4.9.8 10.6 1.6 13.7 2.1 1.4.2 5.2.7 8.5 1 3.3.4 7.6.8 9.5 1.1 1.9.2 9.6.7 17 1 16.5.8 16.2.8 17.2 2.5.4.8 3.9 8.6 7.7 17.4 15.8 36 38.4 75 60.6 104.5 3.9 5.2 7.5 10.1 7.9 10.9.7 1.1-3.4 1.3-26.5.8-15.1-.3-29.6-.8-32.4-1.1-28-3-33.1-3.7-53-7.7-50.6-10.2-93.9-27.9-124-50.7-3.3-2.6-6.3-5-6.6-5.4-.7-1.1-3.9.1-3.9 1.4 0 2.1 9.7 14.4 17.9 22.7 29.7 30 74.7 55.2 122.6 68.7 5 1.4 9.7 2.7 10.5 2.9 4.6 1.3 35.7 7.4 40.2 7.9 2.9.3 6.4.8 7.8 1 12.8 2.1 29.6 3 58 3.1h28.5l3.1 3c1.6 1.6 6.8 6.5 11.5 10.7 7.7 7.1 9.6 8.7 15.4 13.6 6.2 5.2 27.4 20.7 36 26.4 20.2 13.2 45.3 26.3 66.2 34.8 4.6 1.9 8.2 3.4 8 3.6-.1.1-3.6.4-7.7.8-4.1.3-11.5.9-16.5 1.3-18.5 1.5-77.9.8-94-1.1-1.7-.2-6.4-.7-10.5-1.1-4.1-.4-8.2-.8-9-1-.9-.2-4.3-.6-7.5-1-3.3-.4-6.9-.9-8-1.1-1-.2-3.7-.6-6-.9-2.2-.3-4.7-.8-5.5-1-.8-.2-3.5-.7-6-1-2.5-.3-6.1-1-8-1.5-5.7-1.6-8-1.3-8 1 0 2.2 0 2.2 15 7.6 26 9.5 62.6 18.7 86 21.9 2.5.3 5.6.8 7 1 1.4.2 4.5.7 7 1 2.5.2 6.8.8 9.5 1.1 29.3 3.6 81.3 3.6 109.5-.1 1.9-.3 5.8-.7 8.5-1 2.8-.3 6.1-.7 7.5-.9 1.4-.3 4.3-.7 6.5-1.1 23.2-3.3 51.6-10 76.6-18.1 12.8-4.1 34-11.8 39.4-14.4 1.1-.5 4.3-1.9 7-3 45.4-19.6 96.6-52.7 135.6-87.7 10.6-9.5 34.6-34 44.2-45.2 16-18.7 32.7-41.6 43.1-58.9 3.7-6 3.7-6.4 2-7.7-1.1-.8-2.2-1.5-2.5-1.5-.3 0-4.1 4.2-8.4 9.2-13.1 15.3-38.4 40.1-57.1 55.8-6.2 5.2-12.3 10-12.7 10-.4 0-.9-2.1-2.4-10-1.4-8.1-5.6-28.3-6.8-33-.8-3-1.6-6.6-1.8-8-1.2-6.5-15.1-57.7-17.2-63.2-.4-1 3.2-4.6 11.7-11.4 28.8-23.1 52.1-45.5 77.7-74.9 4.8-5.4 20.9-26.3 22.7-29.5 1-1.6 2.1-3 2.4-3 .8 0 4.8 21.4 6.5 35 .4 3 .9 6.2 1 7 2 11.1 3.8 40.7 3.9 64.9l.1 16.5 2.8.7c1.8.5 2.7.3 2.8-.4.1-1.7.5-3.6 1.9-8.7.7-2.5 1.4-5.5 1.6-6.8.2-1.2.8-4.9 1.4-8.2.6-3.3 1.2-7 1.4-8.3.2-1.2.7-5.8 1.1-10.2.4-4.4.9-8.9 1.1-10 .5-2.7 1.7-34 1.7-45.5 0-9.3-1.1-32.5-1.8-35.8-.1-.9-.6-4.4-1-7.7-.8-7.1-1-8.7-1.9-14.2-.6-3.8-.1-5.4 5.2-16 9.1-18.1 18.7-43.3 22.7-59.3 2.7-10.8 5.5-24.7 6-29.5.4-3.3.8-6.2 1-6.5.7-1.1 1.8-20.1 1.8-31.5 0-10.9-.7-23.9-1.7-29-.2-1.1-.7-4-1.2-6.5-.4-2.5-.8-4.7-.9-5-.1-.3-.5-2.3-.9-4.5s-1.1-5.1-1.6-6.5c-.5-1.4-1.1-3.7-1.4-5.2-.5-2-1-2.5-2.6-2.1-1.1.3-2 .8-2.1 1.2 0 .3-.2 4.9-.4 10.1-.3 10.1-1.4 25-1.9 25.9-.2.3-.7 3.3-1 6.6-.4 3.3-1.1 7.6-1.6 9.5-.5 1.9-1.2 5.1-1.5 7-.3 1.9-2.1 9.2-4 16.1-5.4 19.4-13.2 39.5-22.8 58.2l-4.5 8.8-3.7-11.3c-4.8-14.5-13.7-37-21-52.9-7.7-17-14.1-28.9-31.1-58.5l-2.4-4.1 4.4-8.9c14.5-29.7 23.2-58 26.3-86.4 1-8.7 1-36.1 0-43-4.2-29.4-16.6-54.8-37.1-75.7-7.7-7.9-9.2-8.9-11.1-7.3-1 .8-.6 2.3 1.6 6.8 2.7 5.7 7.4 20.4 8.4 26.6.3 1.7.7 4.2 1 5.6 1.9 10.5 2.5 28.9 1.2 43-1.3 15.4-6.8 37.5-13.4 54.5-3.7 9.4-13.8 31.1-15.5 33.2-.7.9-2.6-.8-6.8-6.2-24.3-30.5-55.1-62.3-84.7-87.4-6.8-5.7-12.3-10.7-12.3-11 0-.4.4-1.1.9-1.7 1.7-1.8 10.1-24.4 12.6-34.1 6.1-23.5 7.5-47 3.9-65.3-7.5-37.7-34.7-69.9-75.7-89.5-18.2-8.8-42.4-16.4-44.6-14.2-1.4 1.4-1.4 2.7-.1 2.7.5 0 4 1.4 7.7 3.2 30.3 14.3 51.5 37.7 59.7 66 3.3 11.5 3.9 16.4 3.9 30.8 0 14.3-1.7 24.4-6.8 39.7-3.6 10.9-10.3 26.3-11.5 26.3-.3 0-2.6-1.3-5.1-2.9-8.2-5.3-15.9-10.1-16.3-10.1-.2 0-3.5-1.9-7.2-4.2-15.6-9.4-50.6-26.3-73.1-35.3-5.1-2.1-9.3-3.8-9.3-3.9 0-.1 1.5-3.8 3.4-8.2 20.1-47.6 6.9-87.5-35.6-107.7-13.5-6.5-32.2-11.4-50.3-13.3-6.2-.6-39.2-1.3-39.8-.8zm8.8 16.7c1.1.3 4.3.8 7 1.1 10.7 1.4 26.2 6.4 35.5 11.4 6.8 3.7 10.9 6.9 17 13.2 12.3 12.7 17.3 29.2 13.9 46.1-.6 3-1.3 6.5-1.5 7.9-.7 3.3-5.4 15.1-6.7 16.8-.5.7-1.8 1-2.8.7-1.1-.4-3.1-.8-4.6-1.1-1.5-.3-3-.7-3.3-.9-1.5-.9-22.9-5.4-43-9-9.3-1.7-19.8-3-30.5-4-4.4-.3-9.1-.8-10.5-1.1-1.4-.2-9.5-.6-18-1-8.5-.3-16.7-.7-18.2-.8-3.1-.4-5.1.6-5.4 2.8-.1 1 .6 1.6 1.9 1.7 1.2 0 3.1.2 4.2.4s4.3.7 7 1c2.8.3 5.7.8 6.5 1 .8.2 3.3.7 5.5 1 2.3.3 5.2.7 6.5 1 1.4.3 4.8.9 7.6 1.4 10.7 2 29.4 6.4 42.9 10.1 14.7 4 40.3 12.2 42.8 13.7 1.2.6.4 2.3-4.1 8.3-12.2 16.1-51 51.4-54.4 49.4-.7-.4-5.6-4-10.8-7.9-26.9-20.3-53.1-37-74.8-47.7-4-1.9-4.5-2-6-.5-.9.9-1.4 1.8-1.1 2 3.4 2.7 29.2 24.9 31.5 27.2 1.7 1.6 4.6 4.2 6.4 5.7 5.1 4.2 36 34 36 34.7 0 .8-5.8 4.5-13 8.4-3 1.6-6 3.4-6.5 3.8-1.3.9-29.2 14.9-29.9 14.9-.3 0-3.3 1.3-6.8 2.9-7.3 3.3-18 7.6-25.6 10.2-3.9 1.4-5.4 1.5-5.7.6-1.9-6.2-9.4-32.9-10-35.7-.2-.8-.8-3.5-1.4-6-1.6-6.2-1.6-6.4-4.1-16-1.2-4.7-2.3-9.4-2.6-10.5-1.9-9-4.8-21.2-5.3-22.1-.4-.8-1.4-.9-2.9-.3l-2.4.9.6 16.8c.4 9.2.8 17.6 1 18.7.2 1.1.7 6.5 1.1 12 .3 5.5.8 10.7 1 11.5.2.8.7 4 1 7 .4 3 1.4 11.3 2.4 18.3s1.5 13 1.1 13.2c-1.2.8-16.4 4.4-33.1 8-3.2.7-21.1 3.2-28.1 4-2.6.3-9.9.7-16.2 1.1-9.3.4-11.6.2-11.6-.8 0-2.9 8.3-32.2 14.2-49.8 5.7-17.2 16.1-43.9 20.9-53.2 2.1-4.2 2-6.8-.5-6.8-1.5 0-5.3 5.3-15.1 21.6-12.5 20.6-26.2 49.8-35.6 75.9-2.3 6.6-4.4 12.1-4.5 12.3-.1.2-2.8-.1-6-.7-3.3-.5-7.2-1.2-8.9-1.5-7.2-1.2-19.1-5.3-25.6-8.8-15.7-8.4-25.4-19.9-29.5-35.1-2.2-8.2-1.6-24.9 1.2-34.7 12.8-44 61.9-90.9 131.6-125.5 28.9-14.4 67-28.1 91.9-33 1.3-.3 3.5-.8 4.9-1 5.4-1.2 13.7-2.6 18-3.1 2.5-.3 5.1-.7 5.8-.9.7-.3 5.4-.7 10.5-1.1 5-.4 9.3-.8 9.5-.9.5-.5 35.5.3 37.7.8zm119.3 141.1c9.2 4.6 18.3 9.3 20.2 10.5 1.9 1.1 4.4 2.5 5.5 3 3.1 1.4 30.2 17.8 38.5 23.3 17.3 11.6 25.9 18.1 25.3 19.2-1.5 2.5-13.1 17.7-19.7 25.6-19.1 23.3-69.1 68.8-72 65.6-.6-.6-3.3-3.6-6.1-6.7-18-19.8-25.9-28.1-40.5-42.8-9.1-9.1-21.1-20.8-26.8-26-5.6-5.2-10.2-9.7-10.2-10 .1-.3 4.2-3.8 9.3-7.8 20.9-16.3 42.2-38.1 55.2-56.6 2.2-3.1 4.1-5.7 4.3-5.7.2 0 7.8 3.8 17 8.4zm-96.2 91.8c7.1 7.9 13.1 14.5 13.4 14.8.3.3 3.4 3.9 7 8s6.7 7.7 7 8c1 .9 15.3 18.1 25.5 30.5 5.4 6.6 10.5 12.8 11.3 13.7 1.4 1.6 1.3 2-.3 3.8-1 1.1-2.1 2-2.5 2-.4 0-4.8 2.7-9.7 5.9-32.7 21.5-84.9 47.6-124.5 62.2l-7.9 2.9-1-2.8c-8.5-21.7-38.9-109.1-38.9-111.8 0-.5 4.4-2.4 9.8-4.3 27-9.3 62.1-25.6 85.2-39.5 6.9-4.2 12.6-7.6 12.6-7.6.1 0 5.9 6.4 13 14.2zm242.4 8.9c15.6 14.6 34.6 33.9 45.8 46.4 3 3.3 6.6 7.3 8.1 9 7.2 7.9 31.2 38.1 35.6 44.9 1.7 2.6 1.7 2.6-5.5 12.2-8 10.7-8.4 11.1-19.3 23.8-15.4 17.8-40.8 42.5-61.2 59.7-11 9.2-27.1 21.9-27.8 21.9-.3 0-3.5-4.8-7.1-10.8-17.6-29-40.6-63.1-61.9-91.9l-13.5-18.1 4.3-3.1c2.3-1.6 5.7-4.3 7.6-6 1.9-1.6 6.8-5.8 10.9-9.2 26.9-22.9 53-51.2 70.5-76.3 3.3-4.7 6.2-8.6 6.5-8.6.3 0 3.4 2.8 7 6.1zm-385.1 48.1c1.7 7.3 3.3 14.2 3.6 15.3.2 1.1 1.4 5.8 2.5 10.5 1.2 4.7 2.3 9.2 2.5 10 .2.8 1.4 4.9 2.5 9 1.2 4.1 2.4 8.4 2.6 9.5.2 1.1 1.1 4.2 1.9 7 8.9 29.8 12.4 41.3 13 42.7.7 1.8-1.6 2.7-24 8.6-15.3 4.1-39.4 9.5-47.6 10.7-2.4.3-5.1.8-5.9 1-.8.2-3.3.7-5.5 1-2.3.3-5 .7-6 .9-2.2.4-8.1 1.3-13.5 2-1.9.3-6.5.8-10.1 1.1-3.6.4-7.9.8-9.5 1-1.6.2-8.1.7-14.5 1.1l-11.6.6.3-23.8c.1-13.2.5-28 .8-32.9.9-14.6 2.9-36.4 4.1-44.5.2-1.4.7-5 1-8 .3-3 1.1-8.2 1.7-11.5.5-3.3 1-7 1.1-8.1.1-2.1.6-2.2 9.1-2.3 4.9-.1 11-.3 13.5-.6 2.6-.2 8-.7 12.1-1 19.7-1.6 45.2-5.8 65-10.9 3-.8 6-1.4 6.6-1.5.7-.1 2.5 5.5 4.3 13.1zm255.2 82c16.1 22.8 21.1 30.1 32.6 47.3 17.1 25.7 40.8 63.4 40.1 64-2.1 1.6-21 13.8-30.3 19.5-30.4 18.5-73.5 40.8-104.5 53.9-8 3.4-16.1 6.9-18 7.8-1.9.8-9.7 3.9-17.3 6.8-13.7 5.3-13.8 5.3-14.7 3.2-.4-1.2-4.2-9.3-8.4-18s-7.6-16-7.6-16.2c0-.2-2-4.5-4.4-9.7-9.5-20.5-37.6-85.8-37.6-87.6 0-.4 3-1.8 6.8-3.1 9.5-3.3 40.3-15.7 48.7-19.6 3.8-1.8 9.2-4.3 12-5.5 11.3-5.1 35.6-17.6 47.5-24.3 1.9-1.1 6.2-3.5 9.5-5.4 8.5-4.8 24-14.3 31-19.1 3.3-2.3 6.3-4.1 6.7-4.1.3-.1 3.9 4.5 7.9 10.1zm257.9 29c0 .3 1.9 3.9 4.3 8 14.9 25.2 33.9 67.8 45.7 102.2l4.8 13.8-9.7 12.8c-24.7 32.9-58.2 66.6-96.1 96.9-6.9 5.5-12.8 9.6-13.2 9.3-.4-.4-2.7-6.1-5.2-12.7-2.6-6.6-5.1-12.9-5.6-14-.5-1.1-3-7.2-5.6-13.5-2.5-6.3-5.7-14-7.1-17-1.4-3-4.1-9.1-6-13.5-2-4.4-8.7-18.5-15-31.4-6.3-12.9-11.5-23.8-11.6-24.2-.1-.4 6-5.7 13.7-11.8 24.9-19.8 47.1-40.5 67.7-63.2 9.3-10.2 27.3-32.4 32.9-40.6 3-4.4 3.6-4.8 4.7-3.4.7.9 1.3 1.9 1.3 2.3zM406.5 485c4.7 12.7 16.2 41.2 19.5 48.5.9 2.2 3.6 8.5 6 14 5.3 12.6 5.1 12.2 16 35.5 5.1 10.7 9.4 20.4 9.7 21.6.4 1.7-.2 2.3-3.4 3.2-2.1.6-8.5 2.4-14.3 4.2-12 3.5-38.9 10.6-43.8 11.5-1.8.3-5.7 1.2-8.8 2-3 .8-7.4 1.7-9.7 2-2.3.4-4.5.8-4.8 1.1-.4.2-2.4.6-4.4 1-2.1.3-4.7.8-5.9 1-1.1.2-3.7.7-5.6 1-1.9.2-5.5.9-8 1.4-2.5.5-9.7 1.7-16 2.5l-14 2c-2.2.3-8.8 1.1-19 2.1-7.9.9-20.8 1.8-25.9 1.8l-5.3.1-2.5-7.5c-2.2-6.8-11-36.4-11.8-40-.2-.8-1.9-8-3.8-16s-3.8-16.3-4.2-18.5c-.5-2.2-.9-4.5-1-5-.5-2.2-3.5-18.2-3.9-21-1.1-7.2-1.9-12.1-2.2-13.8-.9-4.8-2.7-21.8-2.3-22.1.2-.2 7.2-.7 15.4-1 8.3-.4 16.6-.8 18.5-1 1.9-.2 7.1-.7 11.4-1.1 4.3-.4 8.6-.8 9.5-1 .9-.1 4.3-.6 7.6-.9 13-1.5 26-3.8 62.5-11.2 2.4-.5 24.2-6.2 34-8.9 2.5-.7 4.8-.9 5.1-.6.4.3 2.8 6.2 5.4 13.1zm311.9 82.7c20.7 39.3 55.9 113.5 54.4 114.8-1.5 1.3-37.7 24.5-38.2 24.5-.2 0-3.3 1.7-6.7 3.9-13.6 8.2-33.3 18.9-53.9 29.2-25.6 12.7-30.4 15-53 24.6-1.9.8-4.4 1.9-5.5 2.4-8.6 3.7-18.2 7.4-19.4 7.4-1.6 0-6.9-8.3-24.5-38.5-11.8-20.3-12.6-21.7-20.9-36.5-2.7-5-6.1-11-7.4-13.5-1.4-2.5-5.7-10.6-9.6-18-3.8-7.4-7.4-13.9-7.8-14.5-1.2-1.3-1.1-3.5.1-3.5 2.3 0 45.4-17.1 60.3-23.9 3.7-1.7 7-3.1 7.2-3.1.3 0 10.1-4.7 21.7-10.5 29.1-14.3 40.3-20.4 64.8-35.1 8.5-5.1 19.1-11.8 23.5-14.8 4.4-3 8.3-5.5 8.6-5.5.3-.1 3.2 4.7 6.3 10.6zM495 676.2c7.1 12.8 16.3 29 20.1 35.3 1 1.6 2.6 4.3 3.5 6 3.5 6.4 25.2 40.7 34.5 54.7 5.4 8.1 9.5 14.9 9.1 15.1-.4.3-2.5 1-4.7 1.6-2.2.7-4.9 1.6-6 2.1-4.7 2.1-52.1 16.2-58.4 17.5-.9.2-5.4 1.3-10.1 2.5-4.7 1.2-9.6 2.4-11 2.7-1.3.2-6.1 1.3-10.6 2.3-4.5 1.1-9.5 2.2-11.1 2.5-1.5.2-3.9.7-5.3 1-3 .6-13 2.4-16.7 3.1-1.6.2-5 .9-7.8 1.4-2.7.5-6.8 1.2-9 1.5-9.5 1.4-25.5 3.5-30.9 4.1-3.3.3-6.6.7-7.5.9-1.4.2-6.5-5.5-12.6-13.9-1.1-1.6-3.4-4.7-5.1-7-14-18.7-32.8-48.9-45.3-72.6-8.5-16.3-19.4-39-18.9-39.5.2-.2 4.8-.6 10.3-1 5.5-.3 12.5-.7 15.5-1 3-.3 8.2-.8 11.5-1.1 3.3-.3 7.6-.7 9.5-.9 1.9-.2 6-.7 9-1 3-.3 6.4-.7 7.5-.9 1.1-.2 4.7-.7 8-1.1 3.2-.4 6.8-.9 7.9-1.1 1.1-.2 3.6-.6 5.6-.9 2-.3 4.5-.7 5.5-.9 1.1-.2 4-.7 6.5-1.1 2.5-.3 7.7-1.3 11.5-2 3.9-.8 8.1-1.6 9.5-1.9 15.3-2.8 51.7-11.8 67-16.5 5.2-1.6 10-3 10.6-3 .6-.1 4.4 5.9 8.4 13.1zm300.3 61.4c5.3 13.9 24 70.2 28.5 86.3l5.3 18.4-2.1 1.9c-3.8 3.5-35.4 24.4-52 34.3-21 12.5-72.3 38.5-76.1 38.5-1 0-17.2-19.3-29.4-35-4.9-6.3-9.2-11.7-9.5-12-.9-.8-26-35.6-30.9-42.8-2.4-3.5-3.9-6.7-3.5-7.1.5-.4 5.2-2.5 10.4-4.6 49.6-20 103.9-48.4 143-74.9 6.9-4.6 12.9-8.3 13.5-8.2.5.1 1.8 2.5 2.8 5.2zM607.2 846.7c21 26.3 33.6 40.7 56.1 63.9 7.6 7.8 13.9 14.6 13.9 15.1 0 3-79.4 27.5-100.2 30.9-1.9.3-3.8.8-4.1 1-.4.2-2.4.6-4.5.9-2.2.4-4.6.8-5.4 1-.8.2-3.1.7-5 1-1.9.3-5.8 1-8.6 1.6-6.1 1.2-8.3.4-30.3-10.2-35.7-17.4-71.1-42.3-103.7-73.4-6.2-5.8-6.6-6.5-4.4-6.6 1.4 0 3.9-.2 5.5-.4 1.7-.2 5.3-.7 8-1 2.8-.3 6.1-.7 7.5-1 1.4-.2 6.1-.9 10.5-1.5s9.1-1.2 10.5-1.5c1.4-.2 6.8-1.1 12-2 5.2-.9 16-3 24-4.6 8-1.7 15.6-3.3 17-3.5 1.9-.4 33-8.3 39-9.9.8-.3 3.1-.9 5-1.4 5.2-1.3 32.7-10 38.5-12.1 2.7-1 5.3-1.9 5.6-1.9.3-.1 6.2 7 13.1 15.6z"/></svg>